<mxfile host="app.diagrams.net" modified="2021-08-29T22:08:24.561Z" agent="5.0 (X11)" etag="unCBi63QsH3Tm4Q82mDG" compressed="false" version="15.0.2" type="device">
  <diagram id="48c6xlmTo4EsxxnxAwjl" name="Page-1">
    <mxGraphModel dx="1422" dy="758" grid="1" gridSize="10" guides="1" tooltips="1" connect="1" arrows="1" fold="1" page="1" pageScale="1" pageWidth="1169" pageHeight="827" background="#000000" math="0" shadow="0">
      <root>
        <mxCell id="0" />
        <mxCell id="1" parent="0" />
        <mxCell id="UFnFALG0MxwoHqPMgSWa-1" value="" style="shape=table;html=1;whiteSpace=wrap;startSize=0;container=1;collapsible=0;childLayout=tableLayout;shadow=0;swimlaneFillColor=none;fontFamily=monospace;fillColor=none;fontColor=#EAEAEA;strokeColor=#EAEAEA;fontSize=10;" parent="1" vertex="1">
          <mxGeometry x="159" y="81" width="841" height="40" as="geometry" />
        </mxCell>
        <mxCell id="UFnFALG0MxwoHqPMgSWa-2" value="" style="shape=partialRectangle;html=1;whiteSpace=wrap;collapsible=0;dropTarget=0;pointerEvents=0;fillColor=none;top=0;left=0;bottom=0;right=0;points=[[0,0.5],[1,0.5]];portConstraint=eastwest;fontColor=#EAEAEA;fontFamily=monospace;" parent="UFnFALG0MxwoHqPMgSWa-1" vertex="1">
          <mxGeometry width="841" height="40" as="geometry" />
        </mxCell>
        <mxCell id="UFnFALG0MxwoHqPMgSWa-3" value="&lt;div style=&quot;font-size: 11px&quot;&gt;&lt;font style=&quot;font-size: 11px&quot;&gt;Destination MAC&lt;/font&gt;&lt;/div&gt;&lt;div style=&quot;font-size: 11px&quot;&gt;&lt;font style=&quot;font-size: 11px&quot;&gt;/ Source MAC&lt;br&gt;&lt;/font&gt;&lt;/div&gt;" style="shape=partialRectangle;html=1;whiteSpace=wrap;connectable=0;fillColor=none;top=0;left=0;bottom=0;right=0;overflow=hidden;pointerEvents=1;fontColor=#EAEAEA;fontFamily=monospace;strokeColor=none;" parent="UFnFALG0MxwoHqPMgSWa-2" vertex="1">
          <mxGeometry width="160" height="40" as="geometry" />
        </mxCell>
        <mxCell id="UFnFALG0MxwoHqPMgSWa-5" value="&lt;div style=&quot;font-size: 10px;&quot;&gt;802.1Q/ad&lt;/div&gt;&lt;div style=&quot;font-size: 10px;&quot;&gt;VLAN 0&lt;/div&gt;" style="shape=partialRectangle;html=1;whiteSpace=wrap;connectable=0;fillColor=none;top=0;left=0;bottom=0;right=0;overflow=hidden;pointerEvents=1;horizontal=1;fontSize=10;fontColor=#EAEAEA;fontFamily=monospace;strokeColor=none;" parent="UFnFALG0MxwoHqPMgSWa-2" vertex="1">
          <mxGeometry x="160" width="101" height="40" as="geometry" />
        </mxCell>
        <mxCell id="iafYKnJxgENBYxYwTL1L-1" value="&lt;div style=&quot;font-size: 10px;&quot;&gt;Ethertype&lt;/div&gt;" style="shape=partialRectangle;html=1;whiteSpace=wrap;connectable=0;fillColor=none;top=0;left=0;bottom=0;right=0;overflow=hidden;pointerEvents=1;horizontal=1;fontSize=10;fontColor=#EAEAEA;fontFamily=monospace;strokeColor=none;" parent="UFnFALG0MxwoHqPMgSWa-2" vertex="1">
          <mxGeometry x="261" width="60" height="40" as="geometry" />
        </mxCell>
        <mxCell id="UFnFALG0MxwoHqPMgSWa-48" value="&lt;div&gt;&lt;font style=&quot;font-size: 12px&quot;&gt;Data&lt;/font&gt;&lt;/div&gt;" style="shape=partialRectangle;html=1;whiteSpace=wrap;connectable=0;fillColor=none;top=0;left=0;bottom=0;right=0;overflow=hidden;pointerEvents=1;fontColor=#EAEAEA;fontFamily=monospace;strokeColor=none;" parent="UFnFALG0MxwoHqPMgSWa-2" vertex="1">
          <mxGeometry x="321" width="520" height="40" as="geometry" />
        </mxCell>
        <mxCell id="UFnFALG0MxwoHqPMgSWa-51" value="&lt;div&gt;Ethernet II&lt;/div&gt;" style="text;html=1;align=right;verticalAlign=middle;resizable=0;points=[];autosize=1;strokeColor=none;fontSize=12;imageHeight=24;fontColor=#EAEAEA;fontFamily=monospace;" parent="1" vertex="1">
          <mxGeometry x="80" y="90" width="70" height="20" as="geometry" />
        </mxCell>
        <mxCell id="UFnFALG0MxwoHqPMgSWa-54" value="12" style="text;html=1;align=center;verticalAlign=middle;resizable=0;points=[];autosize=1;strokeColor=none;fontSize=12;fontColor=#EAEAEA;fontFamily=monospace;" parent="1" vertex="1">
          <mxGeometry x="225" y="61" width="30" height="20" as="geometry" />
        </mxCell>
        <mxCell id="UFnFALG0MxwoHqPMgSWa-57" value="&lt;div&gt;4&lt;/div&gt;" style="text;html=1;align=center;verticalAlign=middle;resizable=0;points=[];autosize=1;strokeColor=none;fontSize=12;fontColor=#EAEAEA;fontFamily=monospace;" parent="1" vertex="1">
          <mxGeometry x="360" y="61" width="20" height="20" as="geometry" />
        </mxCell>
        <mxCell id="UFnFALG0MxwoHqPMgSWa-78" value="" style="shape=table;html=1;whiteSpace=wrap;startSize=0;container=1;collapsible=0;childLayout=tableLayout;fillColor=none;fontColor=#EAEAEA;strokeColor=#EAEAEA;fontFamily=monospace;fontSize=10;" parent="1" vertex="1">
          <mxGeometry x="160" y="240" width="840" height="40" as="geometry" />
        </mxCell>
        <mxCell id="UFnFALG0MxwoHqPMgSWa-79" value="" style="shape=partialRectangle;html=1;whiteSpace=wrap;collapsible=0;dropTarget=0;pointerEvents=0;fillColor=none;top=0;left=0;bottom=0;right=0;points=[[0,0.5],[1,0.5]];portConstraint=eastwest;fontColor=#EAEAEA;fontFamily=monospace;" parent="UFnFALG0MxwoHqPMgSWa-78" vertex="1">
          <mxGeometry width="840" height="40" as="geometry" />
        </mxCell>
        <mxCell id="UFnFALG0MxwoHqPMgSWa-80" value="802.11 MAC header" style="shape=partialRectangle;html=1;whiteSpace=wrap;connectable=0;fillColor=none;top=0;left=0;bottom=0;right=0;overflow=hidden;pointerEvents=1;fontColor=#EAEAEA;fontFamily=monospace;fontSize=12;strokeColor=none;" parent="UFnFALG0MxwoHqPMgSWa-79" vertex="1">
          <mxGeometry width="320" height="40" as="geometry" />
        </mxCell>
        <mxCell id="UFnFALG0MxwoHqPMgSWa-82" value="&lt;div style=&quot;font-size: 10px;&quot;&gt;DSAP&lt;/div&gt;&lt;div style=&quot;font-size: 10px;&quot;&gt;0xAA&lt;br style=&quot;font-size: 10px;&quot;&gt;&lt;/div&gt;" style="shape=partialRectangle;html=1;whiteSpace=wrap;connectable=0;fillColor=none;top=0;left=0;bottom=0;right=0;overflow=hidden;pointerEvents=1;horizontal=1;fontSize=10;fontColor=#EAEAEA;fontFamily=monospace;strokeColor=none;" parent="UFnFALG0MxwoHqPMgSWa-79" vertex="1">
          <mxGeometry x="320" width="40" height="40" as="geometry" />
        </mxCell>
        <mxCell id="UFnFALG0MxwoHqPMgSWa-90" value="&lt;div style=&quot;font-size: 10px;&quot;&gt;LSAP&lt;/div&gt;&lt;div style=&quot;font-size: 10px;&quot;&gt;0xAA&lt;/div&gt;" style="shape=partialRectangle;html=1;whiteSpace=wrap;connectable=0;fillColor=none;top=0;left=0;bottom=0;right=0;overflow=hidden;pointerEvents=1;horizontal=1;fontSize=10;fontColor=#EAEAEA;fontFamily=monospace;strokeColor=none;" parent="UFnFALG0MxwoHqPMgSWa-79" vertex="1">
          <mxGeometry x="360" width="40" height="40" as="geometry" />
        </mxCell>
        <mxCell id="UFnFALG0MxwoHqPMgSWa-97" value="&lt;div style=&quot;font-size: 10px;&quot;&gt;&lt;font style=&quot;font-size: 10px;&quot;&gt;Ctrl&lt;/font&gt;&lt;/div&gt;&lt;div style=&quot;font-size: 10px;&quot;&gt;&lt;font style=&quot;font-size: 10px;&quot;&gt;0x03&lt;/font&gt;&lt;/div&gt;" style="shape=partialRectangle;html=1;whiteSpace=wrap;connectable=0;fillColor=none;top=0;left=0;bottom=0;right=0;overflow=hidden;pointerEvents=1;horizontal=1;fontSize=10;fontColor=#EAEAEA;fontFamily=monospace;strokeColor=none;" parent="UFnFALG0MxwoHqPMgSWa-79" vertex="1">
          <mxGeometry x="400" width="40" height="40" as="geometry" />
        </mxCell>
        <mxCell id="UFnFALG0MxwoHqPMgSWa-96" value="&lt;div style=&quot;font-size: 10px;&quot;&gt;OUI&lt;/div&gt;&lt;div style=&quot;font-size: 10px;&quot;&gt;0x00-00-00/F8&lt;br style=&quot;font-size: 10px;&quot;&gt;&lt;/div&gt;" style="shape=partialRectangle;html=1;whiteSpace=wrap;connectable=0;fillColor=none;top=0;left=0;bottom=0;right=0;overflow=hidden;pointerEvents=1;horizontal=1;fontSize=10;fontColor=#EAEAEA;fontFamily=monospace;strokeColor=none;" parent="UFnFALG0MxwoHqPMgSWa-79" vertex="1">
          <mxGeometry x="440" width="100" height="40" as="geometry" />
        </mxCell>
        <mxCell id="UFnFALG0MxwoHqPMgSWa-95" value="&lt;div&gt;802.1Q/ad&lt;/div&gt;&lt;div&gt;VLAN 0&lt;/div&gt;" style="shape=partialRectangle;html=1;whiteSpace=wrap;connectable=0;fillColor=none;top=0;left=0;bottom=0;right=0;overflow=hidden;pointerEvents=1;horizontal=1;fontSize=10;fontColor=#EAEAEA;fontFamily=monospace;strokeColor=none;" parent="UFnFALG0MxwoHqPMgSWa-79" vertex="1">
          <mxGeometry x="540" width="100" height="40" as="geometry" />
        </mxCell>
        <mxCell id="iafYKnJxgENBYxYwTL1L-3" value="&lt;div style=&quot;font-size: 10px&quot;&gt;Ethertype&lt;/div&gt;" style="shape=partialRectangle;html=1;whiteSpace=wrap;connectable=0;fillColor=none;top=0;left=0;bottom=0;right=0;overflow=hidden;pointerEvents=1;horizontal=1;fontSize=10;fontColor=#EAEAEA;fontFamily=monospace;strokeColor=none;" parent="UFnFALG0MxwoHqPMgSWa-79" vertex="1">
          <mxGeometry x="640" width="60" height="40" as="geometry" />
        </mxCell>
        <mxCell id="UFnFALG0MxwoHqPMgSWa-83" value="&lt;div&gt;Data&lt;/div&gt;" style="shape=partialRectangle;html=1;whiteSpace=wrap;connectable=0;fillColor=none;top=0;left=0;bottom=0;right=0;overflow=hidden;pointerEvents=1;fontColor=#EAEAEA;fontFamily=monospace;strokeColor=none;" parent="UFnFALG0MxwoHqPMgSWa-79" vertex="1">
          <mxGeometry x="700" width="140" height="40" as="geometry" />
        </mxCell>
        <mxCell id="UFnFALG0MxwoHqPMgSWa-85" value="IEEE 802.11" style="text;html=1;align=right;verticalAlign=middle;resizable=0;points=[];autosize=1;strokeColor=none;fontSize=12;imageHeight=24;fontColor=#EAEAEA;fontFamily=monospace;" parent="1" vertex="1">
          <mxGeometry x="60" y="250" width="90" height="20" as="geometry" />
        </mxCell>
        <mxCell id="UFnFALG0MxwoHqPMgSWa-86" value="24 or 30" style="text;html=1;align=center;verticalAlign=middle;resizable=0;points=[];autosize=1;strokeColor=none;fontSize=12;fontColor=#EAEAEA;fontFamily=monospace;" parent="1" vertex="1">
          <mxGeometry x="290" y="220" width="70" height="20" as="geometry" />
        </mxCell>
        <mxCell id="UFnFALG0MxwoHqPMgSWa-88" value="1" style="text;html=1;align=center;verticalAlign=middle;resizable=0;points=[];autosize=1;strokeColor=none;fontSize=12;fontColor=#EAEAEA;fontFamily=monospace;" parent="1" vertex="1">
          <mxGeometry x="490" y="220" width="20" height="20" as="geometry" />
        </mxCell>
        <mxCell id="UFnFALG0MxwoHqPMgSWa-98" value="1" style="text;html=1;align=center;verticalAlign=middle;resizable=0;points=[];autosize=1;strokeColor=none;fontSize=12;fontColor=#EAEAEA;fontFamily=monospace;" parent="1" vertex="1">
          <mxGeometry x="530" y="220" width="20" height="20" as="geometry" />
        </mxCell>
        <mxCell id="UFnFALG0MxwoHqPMgSWa-99" value="1" style="text;html=1;align=center;verticalAlign=middle;resizable=0;points=[];autosize=1;strokeColor=none;fontSize=12;fontColor=#EAEAEA;fontFamily=monospace;" parent="1" vertex="1">
          <mxGeometry x="570" y="220" width="20" height="20" as="geometry" />
        </mxCell>
        <mxCell id="UFnFALG0MxwoHqPMgSWa-101" value="3" style="text;html=1;align=center;verticalAlign=middle;resizable=0;points=[];autosize=1;strokeColor=none;fontSize=12;fontColor=#EAEAEA;fontFamily=monospace;" parent="1" vertex="1">
          <mxGeometry x="640" y="220" width="20" height="20" as="geometry" />
        </mxCell>
        <mxCell id="UFnFALG0MxwoHqPMgSWa-102" value="4" style="text;html=1;align=center;verticalAlign=middle;resizable=0;points=[];autosize=1;strokeColor=none;fontSize=12;fontColor=#EAEAEA;fontFamily=monospace;" parent="1" vertex="1">
          <mxGeometry x="740" y="220" width="20" height="20" as="geometry" />
        </mxCell>
        <mxCell id="iafYKnJxgENBYxYwTL1L-2" value="2" style="text;html=1;align=center;verticalAlign=middle;resizable=0;points=[];autosize=1;strokeColor=none;fontSize=12;fontColor=#EAEAEA;fontFamily=monospace;" parent="1" vertex="1">
          <mxGeometry x="440" y="61" width="20" height="20" as="geometry" />
        </mxCell>
        <mxCell id="iafYKnJxgENBYxYwTL1L-4" value="2" style="text;html=1;align=center;verticalAlign=middle;resizable=0;points=[];autosize=1;strokeColor=none;fontSize=12;fontColor=#EAEAEA;fontFamily=monospace;" parent="1" vertex="1">
          <mxGeometry x="820" y="220" width="20" height="20" as="geometry" />
        </mxCell>
        <mxCell id="iafYKnJxgENBYxYwTL1L-5" value="" style="shape=table;html=1;whiteSpace=wrap;startSize=0;container=1;collapsible=0;childLayout=tableLayout;fillColor=none;fontColor=#EAEAEA;strokeColor=#EAEAEA;fontFamily=monospace;fontSize=10;" parent="1" vertex="1">
          <mxGeometry x="160" y="160" width="840" height="40" as="geometry" />
        </mxCell>
        <mxCell id="iafYKnJxgENBYxYwTL1L-6" value="" style="shape=partialRectangle;html=1;whiteSpace=wrap;collapsible=0;dropTarget=0;pointerEvents=0;fillColor=none;top=0;left=0;bottom=0;right=0;points=[[0,0.5],[1,0.5]];portConstraint=eastwest;fontColor=#EAEAEA;fontFamily=monospace;" parent="iafYKnJxgENBYxYwTL1L-5" vertex="1">
          <mxGeometry width="840" height="40" as="geometry" />
        </mxCell>
        <mxCell id="iafYKnJxgENBYxYwTL1L-7" value="&lt;div style=&quot;font-size: 11px&quot;&gt;&lt;font style=&quot;font-size: 11px&quot;&gt;Destination MAC&lt;/font&gt;&lt;/div&gt;&lt;div style=&quot;font-size: 11px&quot;&gt;&lt;font style=&quot;font-size: 11px&quot;&gt;/ Source MAC&lt;br&gt;&lt;/font&gt;&lt;/div&gt;" style="shape=partialRectangle;html=1;whiteSpace=wrap;connectable=0;fillColor=none;top=0;left=0;bottom=0;right=0;overflow=hidden;pointerEvents=1;fontColor=#EAEAEA;fontFamily=monospace;strokeColor=none;" parent="iafYKnJxgENBYxYwTL1L-6" vertex="1">
          <mxGeometry width="160" height="40" as="geometry" />
        </mxCell>
        <mxCell id="iafYKnJxgENBYxYwTL1L-8" value="&lt;div style=&quot;font-size: 10px;&quot;&gt;802.1Q/ad&lt;/div&gt;&lt;div style=&quot;font-size: 10px;&quot;&gt;VLAN 0&lt;/div&gt;" style="shape=partialRectangle;html=1;whiteSpace=wrap;connectable=0;fillColor=none;top=0;left=0;bottom=0;right=0;overflow=hidden;pointerEvents=1;fontColor=#EAEAEA;fontFamily=monospace;fontSize=10;strokeColor=none;" parent="iafYKnJxgENBYxYwTL1L-6" vertex="1">
          <mxGeometry x="160" width="100" height="40" as="geometry" />
        </mxCell>
        <mxCell id="iafYKnJxgENBYxYwTL1L-9" value="Length" style="shape=partialRectangle;html=1;whiteSpace=wrap;connectable=0;fillColor=none;top=0;left=0;bottom=0;right=0;overflow=hidden;pointerEvents=1;horizontal=1;fontSize=10;fontColor=#EAEAEA;fontFamily=monospace;strokeColor=none;" parent="iafYKnJxgENBYxYwTL1L-6" vertex="1">
          <mxGeometry x="260" width="60" height="40" as="geometry" />
        </mxCell>
        <mxCell id="iafYKnJxgENBYxYwTL1L-10" value="&lt;div style=&quot;font-size: 10px;&quot;&gt;DSAP&lt;/div&gt;&lt;div style=&quot;font-size: 10px;&quot;&gt;0xAA&lt;br style=&quot;font-size: 10px;&quot;&gt;&lt;/div&gt;" style="shape=partialRectangle;html=1;whiteSpace=wrap;connectable=0;fillColor=none;top=0;left=0;bottom=0;right=0;overflow=hidden;pointerEvents=1;horizontal=1;fontSize=10;fontColor=#EAEAEA;fontFamily=monospace;strokeColor=none;" parent="iafYKnJxgENBYxYwTL1L-6" vertex="1">
          <mxGeometry x="320" width="40" height="40" as="geometry" />
        </mxCell>
        <mxCell id="iafYKnJxgENBYxYwTL1L-11" value="&lt;div style=&quot;font-size: 10px;&quot;&gt;LSAP&lt;/div&gt;&lt;div style=&quot;font-size: 10px;&quot;&gt;0xAA&lt;/div&gt;" style="shape=partialRectangle;html=1;whiteSpace=wrap;connectable=0;fillColor=none;top=0;left=0;bottom=0;right=0;overflow=hidden;pointerEvents=1;horizontal=1;fontSize=10;fontColor=#EAEAEA;fontFamily=monospace;strokeColor=none;" parent="iafYKnJxgENBYxYwTL1L-6" vertex="1">
          <mxGeometry x="360" width="40" height="40" as="geometry" />
        </mxCell>
        <mxCell id="iafYKnJxgENBYxYwTL1L-12" value="&lt;div style=&quot;font-size: 10px;&quot;&gt;&lt;font style=&quot;font-size: 10px;&quot;&gt;Ctrl&lt;/font&gt;&lt;/div&gt;&lt;div style=&quot;font-size: 10px;&quot;&gt;&lt;font style=&quot;font-size: 10px;&quot;&gt;0x03&lt;/font&gt;&lt;/div&gt;" style="shape=partialRectangle;html=1;whiteSpace=wrap;connectable=0;fillColor=none;top=0;left=0;bottom=0;right=0;overflow=hidden;pointerEvents=1;horizontal=1;fontSize=10;fontColor=#EAEAEA;fontFamily=monospace;strokeColor=none;" parent="iafYKnJxgENBYxYwTL1L-6" vertex="1">
          <mxGeometry x="400" width="40" height="40" as="geometry" />
        </mxCell>
        <mxCell id="iafYKnJxgENBYxYwTL1L-13" value="&lt;div style=&quot;font-size: 10px;&quot;&gt;OUI&lt;/div&gt;&lt;div style=&quot;font-size: 10px;&quot;&gt;0x00-00-00/F8&lt;br style=&quot;font-size: 10px;&quot;&gt;&lt;/div&gt;" style="shape=partialRectangle;html=1;whiteSpace=wrap;connectable=0;fillColor=none;top=0;left=0;bottom=0;right=0;overflow=hidden;pointerEvents=1;horizontal=1;fontSize=10;fontColor=#EAEAEA;fontFamily=monospace;strokeColor=none;" parent="iafYKnJxgENBYxYwTL1L-6" vertex="1">
          <mxGeometry x="440" width="100" height="40" as="geometry" />
        </mxCell>
        <mxCell id="iafYKnJxgENBYxYwTL1L-14" value="&lt;div&gt;802.1Q/ad&lt;/div&gt;&lt;div&gt;VLAN 0&lt;/div&gt;" style="shape=partialRectangle;html=1;whiteSpace=wrap;connectable=0;fillColor=none;top=0;left=0;bottom=0;right=0;overflow=hidden;pointerEvents=1;horizontal=1;fontSize=10;fontColor=#EAEAEA;fontFamily=monospace;strokeColor=none;" parent="iafYKnJxgENBYxYwTL1L-6" vertex="1">
          <mxGeometry x="540" width="100" height="40" as="geometry" />
        </mxCell>
        <mxCell id="iafYKnJxgENBYxYwTL1L-15" value="&lt;div style=&quot;font-size: 10px&quot;&gt;Ethertype&lt;/div&gt;" style="shape=partialRectangle;html=1;whiteSpace=wrap;connectable=0;fillColor=none;top=0;left=0;bottom=0;right=0;overflow=hidden;pointerEvents=1;horizontal=1;fontSize=10;fontColor=#EAEAEA;fontFamily=monospace;strokeColor=none;" parent="iafYKnJxgENBYxYwTL1L-6" vertex="1">
          <mxGeometry x="640" width="60" height="40" as="geometry" />
        </mxCell>
        <mxCell id="iafYKnJxgENBYxYwTL1L-16" value="&lt;div&gt;Data&lt;/div&gt;" style="shape=partialRectangle;html=1;whiteSpace=wrap;connectable=0;fillColor=none;top=0;left=0;bottom=0;right=0;overflow=hidden;pointerEvents=1;fontColor=#EAEAEA;fontFamily=monospace;strokeColor=none;" parent="iafYKnJxgENBYxYwTL1L-6" vertex="1">
          <mxGeometry x="700" width="140" height="40" as="geometry" />
        </mxCell>
        <mxCell id="iafYKnJxgENBYxYwTL1L-17" value="IEEE 802.2&lt;div&gt;LLC+SNAP&lt;br&gt;&lt;/div&gt;" style="text;html=1;align=right;verticalAlign=middle;resizable=0;points=[];autosize=1;strokeColor=none;fontSize=12;imageHeight=24;fontColor=#EAEAEA;fontFamily=monospace;" parent="1" vertex="1">
          <mxGeometry x="70" y="165" width="80" height="30" as="geometry" />
        </mxCell>
        <mxCell id="iafYKnJxgENBYxYwTL1L-18" value="12" style="text;html=1;align=center;verticalAlign=middle;resizable=0;points=[];autosize=1;strokeColor=none;fontSize=12;fontColor=#EAEAEA;fontFamily=monospace;" parent="1" vertex="1">
          <mxGeometry x="225" y="140" width="30" height="20" as="geometry" />
        </mxCell>
        <mxCell id="iafYKnJxgENBYxYwTL1L-19" value="4" style="text;html=1;align=center;verticalAlign=middle;resizable=0;points=[];autosize=1;strokeColor=none;fontSize=12;fontColor=#EAEAEA;fontFamily=monospace;" parent="1" vertex="1">
          <mxGeometry x="360" y="140" width="20" height="20" as="geometry" />
        </mxCell>
        <mxCell id="iafYKnJxgENBYxYwTL1L-20" value="1" style="text;html=1;align=center;verticalAlign=middle;resizable=0;points=[];autosize=1;strokeColor=none;fontSize=12;fontColor=#EAEAEA;fontFamily=monospace;" parent="1" vertex="1">
          <mxGeometry x="490" y="140" width="20" height="20" as="geometry" />
        </mxCell>
        <mxCell id="iafYKnJxgENBYxYwTL1L-21" value="1" style="text;html=1;align=center;verticalAlign=middle;resizable=0;points=[];autosize=1;strokeColor=none;fontSize=12;fontColor=#EAEAEA;fontFamily=monospace;" parent="1" vertex="1">
          <mxGeometry x="530" y="140" width="20" height="20" as="geometry" />
        </mxCell>
        <mxCell id="iafYKnJxgENBYxYwTL1L-22" value="1" style="text;html=1;align=center;verticalAlign=middle;resizable=0;points=[];autosize=1;strokeColor=none;fontSize=12;fontColor=#EAEAEA;fontFamily=monospace;" parent="1" vertex="1">
          <mxGeometry x="570" y="140" width="20" height="20" as="geometry" />
        </mxCell>
        <mxCell id="iafYKnJxgENBYxYwTL1L-23" value="3" style="text;html=1;align=center;verticalAlign=middle;resizable=0;points=[];autosize=1;strokeColor=none;fontSize=12;fontColor=#EAEAEA;fontFamily=monospace;" parent="1" vertex="1">
          <mxGeometry x="640" y="140" width="20" height="20" as="geometry" />
        </mxCell>
        <mxCell id="iafYKnJxgENBYxYwTL1L-24" value="4" style="text;html=1;align=center;verticalAlign=middle;resizable=0;points=[];autosize=1;strokeColor=none;fontSize=12;fontColor=#EAEAEA;fontFamily=monospace;" parent="1" vertex="1">
          <mxGeometry x="740" y="140" width="20" height="20" as="geometry" />
        </mxCell>
        <mxCell id="iafYKnJxgENBYxYwTL1L-25" value="2" style="text;html=1;align=center;verticalAlign=middle;resizable=0;points=[];autosize=1;strokeColor=none;fontSize=12;fontColor=#EAEAEA;fontFamily=monospace;" parent="1" vertex="1">
          <mxGeometry x="440" y="140" width="20" height="20" as="geometry" />
        </mxCell>
        <mxCell id="iafYKnJxgENBYxYwTL1L-26" value="2" style="text;html=1;align=center;verticalAlign=middle;resizable=0;points=[];autosize=1;strokeColor=none;fontSize=12;fontColor=#EAEAEA;fontFamily=monospace;" parent="1" vertex="1">
          <mxGeometry x="820" y="140" width="20" height="20" as="geometry" />
        </mxCell>
      </root>
    </mxGraphModel>
  </diagram>
</mxfile>
